HIERARCHY
ROOT hip
{
	OFFSET 0.000000 0.000000 0.000000 
	CHANNELS 6 Xposition Yposition Zposition Xrotation Zrotation Yrotation
	JOINT abdomen
	{
		OFFSET 0.000000 3.402643 0.000000 
		CHANNELS 3 Xrotation Zrotation Yrotation
		JOINT chest
		{
			OFFSET 0.000000 8.438565 -0.680529 
			CHANNELS 3 Xrotation Zrotation Yrotation
			JOINT neck
			{
				OFFSET 0.000000 10.207942 -0.272212 
				CHANNELS 3 Xrotation Zrotation Yrotation
				JOINT head
				{
					OFFSET 0.000000 3.130431 0.000000 
					CHANNELS 3 Xrotation Zrotation Yrotation
					End Site
					{
						OFFSET 0.000000 3.130435 0.000000 
					}
				}
			}
			JOINT lCollar
			{
				OFFSET 3.470700 6.669187 -0.816635 
				CHANNELS 3 Yrotation Zrotation Xrotation
				JOINT lShldr
				{
					OFFSET 3.198488 0.000000 0.000000 
					CHANNELS 3 Zrotation Yrotation Xrotation
					JOINT lForeArm
					{
						OFFSET 10.139888 0.000000 0.000000 
						CHANNELS 3 Yrotation Zrotation Xrotation
						JOINT lHand
						{
							OFFSET 8.370511 0.000000 0.000000 
							CHANNELS 3 Zrotation Yrotation Xrotation
							End Site
							{
								OFFSET 4.083176 0.000000 0.000000 
							}
						}
					}
				}
			}
			JOINT rCollar
			{
				OFFSET -3.470700 6.669187 -0.816635 
				CHANNELS 3 Yrotation Zrotation Xrotation
				JOINT rShldr
				{
					OFFSET -3.198488 0.000000 0.000000 
					CHANNELS 3 Zrotation Yrotation Xrotation
					JOINT rForeArm
					{
						OFFSET -10.139888 0.000000 0.000000 
						CHANNELS 3 Yrotation Zrotation Xrotation
						JOINT rHand
						{
							OFFSET -8.370511 0.000000 0.000000 
							CHANNELS 3 Zrotation Yrotation Xrotation
							End Site
							{
								OFFSET -4.083176 0.000000 0.000000 
							}
						}
					}
				}
			}
		}
	}
	JOINT lThigh
	{
		OFFSET 5.308129 -1.633274 1.361059 
		CHANNELS 3 Xrotation Zrotation Yrotation
		JOINT lShin
		{
			OFFSET -2.041588 -20.007561 0.000000 
			CHANNELS 3 Xrotation Zrotation Yrotation
			JOINT lFoot
			{
				OFFSET 0.000000 -19.190928 -1.224953 
				CHANNELS 3 Xrotation Yrotation Zrotation
				End Site
				{
					OFFSET 0.000000 -2.449906 4.627600 
				}
			}
		}
	}
	JOINT rThigh
	{
		OFFSET -5.308129 -1.633274 1.361059 
		CHANNELS 3 Xrotation Zrotation Yrotation
		JOINT rShin
		{
			OFFSET 2.041588 -20.007561 0.000000 
			CHANNELS 3 Xrotation Zrotation Yrotation
			JOINT rFoot
			{
				OFFSET 0.000000 -19.190928 -1.224953 
				CHANNELS 3 Xrotation Yrotation Zrotation
				End Site
				{
					OFFSET 0.000000 -2.449906 4.627600 
				}
			}
		}
	}
}
MOTION
Frames: 6
Frame Time: 0.033333
-9.951959 50.670250 -0.141147 1.553838 -0.470580 10.449503 0.000000 0.000000 0.000000 -4.847168 -1.883745 1.885673 -1.983757 1.044473 -1.679942 7.409462 -0.556002 -2.744296 -5.189151 -2.900987 -4.061957 -72.621117 13.793478 13.905272 -34.356556 -8.672020 11.141869 7.159398 4.447947 -3.447080 14.305307 14.122494 -5.102407 51.178875 -1.390287 24.933435 42.422329 13.936451 -2.804105 -12.470260 -6.122853 -3.249902 2.359473 4.154690 5.129560 0.077864 -3.958163 10.314748 -3.593212 0.032301 -1.064744 3.208032 -5.442477 -5.725883 -0.456885 3.549412 -13.362710 -3.148558 -0.113367 3.267440 
-9.938191 50.669479 -0.028884 1.308121 -0.432368 10.303028 0.000000 0.000000 0.000000 -4.742137 -1.815264 2.032087 -1.531613 1.308057 -1.640866 7.544020 -0.712067 -2.754179 -5.070562 -2.284741 -3.924164 -73.087387 15.066969 12.733425 -33.626305 -8.407272 10.185012 6.599583 4.349992 -3.449491 13.980055 13.922660 -4.937214 52.657753 -6.535332 27.199404 41.557499 14.077543 -2.558042 -13.685925 -4.503331 -3.388501 2.788306 4.124519 5.191623 0.057976 -3.881696 10.744598 -3.726473 0.031005 -1.160896 3.580498 -5.435217 -5.766483 -0.497426 3.562153 -13.190018 -3.244876 -0.128924 3.272547 
-9.918174 50.666695 0.054061 1.244101 -0.413304 10.185771 0.000000 0.000000 0.000000 -4.720825 -1.639774 1.846344 -1.166902 1.249535 -1.562767 8.054879 -0.390221 -2.607495 -4.946535 -2.207595 -3.895312 -72.692177 16.260614 11.878380 -33.498913 -8.230227 8.932799 6.037104 3.831970 -3.476203 13.486673 13.670618 -4.892753 53.581120 -11.135369 28.675877 41.088486 14.261440 -2.462535 -14.378965 -3.373400 -3.497187 2.948727 4.101137 5.183908 0.106578 -3.834362 10.916092 -3.861789 0.032709 -1.213573 3.686560 -5.432273 -5.754193 -0.350285 3.493470 -12.934477 -3.415263 -0.125269 3.370810 
-9.920028 50.661274 0.142658 1.244236 -0.481021 9.892881 0.000000 0.000000 0.000000 -4.765054 -1.376415 1.601804 -0.976914 1.191037 -1.426082 8.898400 -0.292736 -2.285226 -4.602241 -2.454648 -3.917555 -71.756035 17.221647 11.277573 -33.611668 -8.088826 7.977118 5.238138 3.485400 -3.499063 13.076407 13.387069 -4.913701 54.524433 -15.462765 28.854176 40.503761 14.483292 -2.643077 -14.219281 -2.097217 -3.648774 3.044574 4.177553 5.296283 0.164300 -3.856350 11.048776 -4.018141 0.055590 -1.278652 3.647263 -5.334327 -5.636930 -0.152564 3.428508 -12.734282 -3.614542 -0.135565 3.431963 
-9.915270 50.650951 0.213804 1.331193 -0.432996 9.834217 0.000000 0.000000 0.000000 -4.812213 -1.259475 1.230601 -0.799947 1.112917 -1.464947 9.524266 -0.078075 -2.041027 -4.632325 -2.713095 -3.966989 -70.618080 17.988274 11.265605 -33.540646 -8.159492 7.814273 5.712807 3.408214 -3.491227 12.508106 13.195531 -4.937492 55.590420 -19.655155 27.830877 39.844570 14.182576 -2.712877 -15.078301 -1.394523 -3.740736 3.090127 4.095132 5.208535 0.136130 -3.764688 11.166815 -4.091827 0.054398 -1.385304 3.650036 -5.387733 -5.681339 -0.125731 3.433482 -12.712858 -3.727125 -0.142062 3.441003 
-9.930639 50.641087 0.260022 1.234546 -0.375396 9.716970 0.000000 0.000000 0.000000 -4.686861 -1.142422 0.947272 -0.525551 1.054329 -1.494247 9.576600 0.107366 -1.855466 -4.760073 -2.675222 -3.839398 -69.661850 18.224142 11.652449 -32.944530 -8.400268 7.968005 6.755338 3.753716 -3.482437 11.787029 13.034009 -4.767725 56.849415 -23.025984 26.023840 39.088577 13.812881 -3.461922 -16.245611 -2.237651 -3.650243 3.239534 4.069552 5.200959 0.174453 -3.737563 11.202711 -4.167538 0.055392 -1.448750 3.776156 -5.415925 -5.701207 -0.077365 3.434172 -12.553291 -3.795827 -0.130435 3.435987 
